<svg id="Capa_1" data-name="Capa 1" xmlns="http://www.w3.org/2000/svg" width="24mm" height="24mm" viewBox="0 0 68.03 68.03">
  <defs>
    <style>
      .cls-1 {
        fill: none;
      }

      .cls-2 {
        fill: #892c7f;
      }

      .cls-3 {
        fill: #393939;
      }

      .cls-4 {
        fill: #f9f9f9;
      }
    </style>
  </defs>
  <path className="cls-1" d="M35.73,18.24H26.27l-1.77,12H34q6.8,0,7.54-5.91T35.73,18.24Z"/>
  <path className="cls-2" d="M47,8.92a20.38,20.38,0,0,0-8.14-1.48H21.69q-6.51,0-7.39,6.21l-7,45.24H20.21L22.87,41H34.55a29.07,29.07,0,0,0,4.9-.41L44.28,8.92ZM41.5,24.3q-.73,5.91-7.54,5.91H24.5l1.77-12h9.46Q42.24,18.24,41.5,24.3Z"/>
  <path className="cls-3" d="M55.59,20.69l.92-5.35q1.07-6.42-5.35-6.42H47a12.1,12.1,0,0,1,4.28,3q4,4.52,2.81,12.5-2.25,14-14.62,16.14L37.56,52.94Q36,62.72,48.87,62.11l6.72-.46,1.53-10.39H52.84q-1.83,0-1.53-1.83l2.91-18.8q5.81,0,7-6.42l.61-3.52Z"/>
  <path className="cls-4" d="M54.07,24.45q1.18-8-2.81-12.5a12.1,12.1,0,0,0-4.28-3h-2.7L39.45,40.59Q51.81,38.4,54.07,24.45Z"/>
</svg>
